<?xml version="1.0" encoding="UTF-8" standalone="no"?>
<svg
   xmlns:dc="http://purl.org/dc/elements/1.1/"
   xmlns:cc="http://creativecommons.org/ns#"
   xmlns:rdf="http://www.w3.org/1999/02/22-rdf-syntax-ns#"
   xmlns:svg="http://www.w3.org/2000/svg"
   xmlns="http://www.w3.org/2000/svg"
   xmlns:sodipodi="http://sodipodi.sourceforge.net/DTD/sodipodi-0.dtd"
   xmlns:inkscape="http://www.inkscape.org/namespaces/inkscape"
   width="512pt"
   height="512pt"
   viewBox="0 0 512 512"
   version="1.1"
   id="svg2"
   inkscape:version="0.48.5 r10040"
   sodipodi:docname="variables.svg">
  <metadata
     id="metadata18">
    <rdf:RDF>
      <cc:Work
         rdf:about="">
        <dc:format>image/svg+xml</dc:format>
        <dc:type
           rdf:resource="http://purl.org/dc/dcmitype/StillImage" />
      </cc:Work>
    </rdf:RDF>
  </metadata>
  <defs
     id="defs16" />
  <sodipodi:namedview
     pagecolor="#ffffff"
     bordercolor="#666666"
     borderopacity="1"
     objecttolerance="10"
     gridtolerance="10"
     guidetolerance="10"
     inkscape:pageopacity="0"
     inkscape:pageshadow="2"
     inkscape:window-width="1366"
     inkscape:window-height="706"
     id="namedview14"
     showgrid="false"
     inkscape:zoom="0.36875"
     inkscape:cx="320"
     inkscape:cy="320"
     inkscape:window-x="-8"
     inkscape:window-y="-8"
     inkscape:window-maximized="1"
     inkscape:current-layer="svg2" />
  <path
     d="M 76.75 49.1875 C 71.497192 49.223999 66.25 49.460938 61.0625 50.40625 C 41.0625 53.78125 22.8125 65.9625 11.875 83 C 4.575 94.1625 0.6 107.35625 0 120.65625 L 0 519.0625 C 0.5375 532.4625 4.525 545.71875 11.875 556.96875 C 23.05 574.39375 41.86875 586.7375 62.34375 589.8125 C 69.43125 590.975 76.6 590.78125 83.75 590.78125 C 244.175 590.76875 404.625 590.81875 565.0625 590.78125 C 585.5625 591.05625 605.975 582.4875 619.9375 567.4375 C 632.1875 554.55 639.2875 537.1125 640 519.375 L 640 120.84375 C 639.3375 100.95625 630.41875 81.5 615.53125 68.25 C 601.89375 55.8125 583.45625 49.00625 565.03125 49.21875 C 405.41875 49.18125 245.8 49.23125 86.1875 49.21875 C 83.042187 49.228125 79.901685 49.165601 76.75 49.1875 z M 590.65625 172.25 C 590.93125 286.925 590.725 401.625 590.75 516.3125 C 591.3125 530.0625 578.8375 542.375 565.0625 541.5 C 401.3375 541.5 237.6125 541.55625 73.875 541.46875 C 60.4625 541.83125 48.7125 529.61875 49.25 516.28125 C 49.2625 401.60625 49.0875 286.94375 49.3125 172.28125 C 229.75 172.34375 410.21875 172.3625 590.65625 172.25 z "
     transform="scale(0.8,0.8)"
     id="path4" />
  <path
     fill="#000"
     d=" M 117.57 210.62 C 120.31 206.04 123.11 201.49 125.89 196.94 C 133.80 196.95 141.71 196.93 149.62 196.95 C 142.68 211.34 136.07 226.10 133.12 241.91 C 129.32 259.61 128.73 277.86 129.83 295.88 C 130.78 307.76 132.59 319.60 136.07 331.01 C 141.03 345.94 148.22 359.97 154.99 374.14 C 147.34 374.17 139.69 374.15 132.04 374.15 C 122.63 358.07 112.00 342.36 106.75 324.29 C 98.86 297.39 98.19 268.27 105.40 241.14 C 108.62 230.67 112.24 220.23 117.57 210.62 Z"
     id="path8" />
  <path
     fill="#000"
     d=" M 361.70 196.95 C 369.67 197.01 377.66 196.77 385.63 197.08 C 388.93 203.14 393.01 208.77 396.01 215.00 C 406.60 237.01 412.08 261.59 410.69 286.05 C 410.09 308.95 404.11 331.78 392.60 351.65 C 388.17 359.17 383.72 366.68 379.21 374.17 C 371.57 374.13 363.93 374.18 356.29 374.14 C 363.13 359.83 370.45 345.67 375.37 330.55 C 380.47 313.54 382.06 295.69 381.99 278.00 C 381.74 261.82 379.90 245.56 375.21 230.04 C 372.05 218.51 366.70 207.76 361.70 196.95 Z"
     id="path10" />
  <path
     fill="#000"
     d=" M 306.10 221.09 C 313.72 217.79 323.68 217.96 329.81 224.17 C 338.45 232.82 336.55 248.73 327.49 256.40 C 322.23 261.07 314.94 262.87 308.03 262.26 C 301.26 262.01 294.86 259.65 288.42 257.80 C 282.76 263.13 278.17 269.41 273.46 275.56 C 277.09 291.01 281.48 306.28 286.75 321.24 C 288.79 326.78 292.68 332.51 298.88 333.69 C 306.88 335.81 314.96 333.18 322.52 330.66 C 321.58 334.55 320.70 338.47 319.64 342.33 C 304.86 348.21 289.16 354.30 272.95 352.01 C 262.78 350.90 253.05 344.48 249.06 334.89 C 245.46 326.19 243.79 316.86 241.43 307.79 C 237.16 313.50 233.70 319.76 229.55 325.56 C 224.29 332.82 219.46 340.61 212.41 346.31 C 207.00 350.73 199.73 352.66 192.83 351.80 C 185.52 350.93 178.98 345.22 177.44 337.97 C 176.41 332.69 176.94 327.04 179.07 322.08 C 182.52 314.27 190.70 309.11 199.14 308.63 C 207.67 307.87 215.87 310.68 223.87 313.20 C 229.50 308.09 233.97 301.94 238.65 296.00 C 235.25 283.65 232.28 271.17 228.13 259.03 C 225.99 252.08 223.47 244.12 216.62 240.43 C 207.97 236.48 198.34 239.35 189.85 242.27 C 190.77 238.40 191.71 234.54 192.66 230.68 C 206.91 224.69 222.18 219.33 237.87 220.65 C 248.31 221.28 258.33 227.63 262.89 237.12 C 266.70 245.68 268.43 254.98 270.61 264.04 C 275.84 256.42 280.52 248.43 286.00 240.98 C 291.35 233.23 297.28 225.10 306.10 221.09 Z"
     id="path12" />
</svg>
